External Loads File
version=1
nRows=31
nColumns=13
Range=5.000000e-03-10 seconds
endheader
time 	forceRightX 	forceRightY 	forceRightZ 	pointRightX 	pointRightY 	pointRightZ 	forceLeftX 	forceLeftY 	forceLeftZ 	pointLeftX 	pointLeftY 	pointLeftZ 		
0.005000 2.156141 303.304320 -0.000000 0.357814 0.473497 -0.114847 -12.655358 323.408638 -0.000000 0.144114 0.197028 -0.356030
0.010000 2.523201 303.448981 -0.000000 0.357799 0.473502 -0.114841 -12.687469 323.271657 -0.000000 0.144120 0.197020 -0.356012
0.015000 2.913058 303.577201 -0.000000 0.357797 0.473508 -0.114841 -12.684971 323.181383 -0.000000 0.144112 0.197019 -0.356009
0.020000 2.258600 303.704345 -0.000000 0.357789 0.473529 -0.114838 -13.770718 323.122656 -0.000000 0.144342 0.195375 -0.355909
0.025000 3.399203 303.812744 -0.000000 0.357822 0.473528 -0.114850 -12.927457 323.214237 -0.000000 0.144063 0.196304 -0.356250
0.030000 4.178978 303.922591 -0.000000 0.357809 0.473545 -0.114864 -12.457283 323.327420 -0.000000 0.144097 0.196997 -0.356239
0.035000 4.570794 304.031546 -0.000000 0.357805 0.473543 -0.114868 -12.382637 323.428868 -0.000000 0.144129 0.196961 -0.356238
0.040000 4.934906 304.127883 -0.000000 0.357788 0.473555 -0.114884 -12.295831 323.513543 -0.000000 0.144131 0.196957 -0.356225
0.045000 5.205801 304.210296 -0.000000 0.357779 0.473562 -0.114878 -12.241658 323.564692 -0.000000 0.144162 0.196954 -0.356211
0.050000 5.382138 304.281516 -0.000000 0.357776 0.473573 -0.114880 -12.214775 323.564965 -0.000000 0.144178 0.196942 -0.356206
0.055000 5.460024 304.353373 -0.000000 0.357764 0.473577 -0.114892 -12.235769 323.496099 -0.000000 0.144200 0.196955 -0.356201
0.060000 5.465309 304.452446 -0.000000 0.357758 0.473575 -0.114889 -12.310256 323.346538 -0.000000 0.144206 0.196953 -0.356190
0.065000 5.412777 304.608371 -0.000000 0.357753 0.473580 -0.114892 -12.445253 323.120344 -0.000000 0.144209 0.196940 -0.356190
0.070000 5.356561 304.827511 -0.000000 0.357751 0.473567 -0.114895 -12.565867 322.852941 -0.000000 0.144209 0.196950 -0.356179
0.075000 5.257571 305.090019 -0.000000 0.357751 0.473564 -0.114892 -12.664411 322.604122 -0.000000 0.144209 0.196944 -0.356183
0.080000 5.136231 305.365409 -0.000000 0.357753 0.473567 -0.114903 -12.681145 322.437080 -0.000000 0.144208 0.196950 -0.356183
0.085000 5.014871 305.625092 -0.000000 0.357756 0.473543 -0.114896 -12.600044 322.379274 -0.000000 0.144210 0.196960 -0.356174
0.090000 4.880061 305.842730 -0.000000 0.357760 0.473549 -0.114904 -12.487014 322.409680 -0.000000 0.144197 0.196962 -0.356170
0.095000 4.755223 305.995077 -0.000000 0.357760 0.473524 -0.114908 -12.378767 322.486889 -0.000000 0.144200 0.196977 -0.356165
0.100000 4.623612 306.063552 -0.000000 0.357776 0.473524 -0.114910 -12.323861 322.578494 -0.000000 0.144181 0.196970 -0.356165
0.105000 4.473760 306.032535 -0.000000 0.357773 0.473517 -0.114916 -12.327090 322.676819 -0.000000 0.144165 0.196983 -0.356170
0.110000 4.335426 305.897657 -0.000000 0.357795 0.473511 -0.114908 -12.347043 322.788359 -0.000000 0.144143 0.196997 -0.356168
0.115000 4.182165 305.679830 -0.000000 0.357793 0.473502 -0.114911 -12.434705 322.906440 -0.000000 0.144147 0.196992 -0.356173
0.120000 4.118629 305.423566 -0.000000 0.357812 0.473488 -0.114916 -12.525118 323.013049 -0.000000 0.144140 0.196985 -0.356172
0.125000 4.121711 305.181167 -0.000000 0.357811 0.473486 -0.114917 -12.666150 323.085944 -0.000000 0.144130 0.196994 -0.356166
0.130000 4.165294 304.983170 -0.000000 0.357815 0.473487 -0.114908 -12.859390 323.121833 -0.000000 0.144128 0.196983 -0.356172
0.135000 4.232544 304.833694 -0.000000 0.357813 0.473504 -0.114920 -13.059723 323.134371 -0.000000 0.144130 0.196994 -0.356165
0.140000 4.316734 304.727462 -0.000000 0.357817 0.473508 -0.114923 -13.211508 323.139878 -0.000000 0.144123 0.196985 -0.356168
0.145000 4.410670 304.656150 -0.000000 0.357812 0.473503 -0.114922 -13.290044 323.155222 -0.000000 0.144120 0.196999 -0.356174
0.150000 4.455521 304.604396 -0.000000 0.357804 0.473515 -0.114935 -13.352019 323.200631 -0.000000 0.144144 0.196981 -0.356168
0.155000 4.553650 304.549749 -0.000000 0.357793 0.473500 -0.114923 -13.281969 323.303255 -0.000000 0.144120 0.196989 -0.356169
